<?xml version="1.0" ?><svg data-name="Layer 1" height="24" id="Layer_1" viewBox="0 0 24 24" width="24" xmlns="http://www.w3.org/2000/svg"><title/><path d="M12,9.90137A6.98456,6.98456,0,0,1,4.9502,3a.75.75,0,0,1,1.5,0A5.48325,5.48325,0,0,0,12,8.40137,5.48325,5.48325,0,0,0,17.5498,3a.75.75,0,0,1,1.5,0A6.98456,6.98456,0,0,1,12,9.90137Z"/><path d="M19,18.24609a.75019.75019,0,0,1-.75-.75c0-2.97852-2.80371-5.40137-6.25-5.40137s-6.25,2.42285-6.25,5.40137a.75.75,0,0,1-1.5,0c0-3.80566,3.47656-6.90137,7.75-6.90137s7.75,3.0957,7.75,6.90137A.75019.75019,0,0,1,19,18.24609Z"/><path d="M13.1001,10.77979c-.21533,0-.41992-.002-.61084-.00439L12,10.772c-2.29883,0-7.68262,0-9.68262-4.38867a.75014.75014,0,0,1,1.36523-.62207C5.28223,9.272,9.81934,9.272,12,9.272l.50537.00391c2.34473.01807,5.90039.062,7.833-3.55664a.74991.74991,0,1,1,1.32324.70605C19.49023,10.49316,15.56787,10.77979,13.1001,10.77979Z"/><path d="M2.99951,15.17383a.74986.74986,0,0,1-.68213-1.061c2-4.38916,7.38379-4.38916,9.68262-4.38916l.48877-.00342c2.38037-.03027,6.812-.07227,9.17285,4.35059a.74991.74991,0,1,1-1.32324.70605c-1.93213-3.61963-5.4873-3.58008-7.8335-3.55713L12,11.22363c-2.18066,0-6.71777,0-8.31738,3.51123A.75086.75086,0,0,1,2.99951,15.17383Z"/><circle cx="12" cy="10" r="3" transform="translate(-2.37549 3.88893) rotate(-16.77506)"/><path d="M12,7.75A2.7528,2.7528,0,0,1,9.25,5a.75.75,0,0,1,1.5,0,1.25,1.25,0,0,0,2.5,0,.75.75,0,0,1,1.5,0A2.7528,2.7528,0,0,1,12,7.75Z"/><circle cx="10.75" cy="16" r="0.75"/><circle cx="13.25" cy="16" r="0.75"/><path d="M12,12a5,5,0,1,0,5,5A5,5,0,0,0,12,12Zm3,5a1.5,1.5,0,0,1-1.5,1.5H13V19a1,1,0,0,1-2,0v-.5h-.5A1.5,1.5,0,0,1,9,17v-.5A2.5,2.5,0,0,1,11.5,14h1A2.5,2.5,0,0,1,15,16.5Z"/></svg>